<svg height="456pt" viewBox="-21 0 456 456.38015" width="456pt" xmlns="http://www.w3.org/2000/svg"><path d="m403.761719 116.699219c0 .5 0 1-.023438 1.492187h-161.546875l-.351562.007813c-.019532-.5-.019532-1-.019532-1.5 0-44.71875 36.25-80.96875 80.96875-80.96875s80.972657 36.25 80.972657 80.96875zm0 0" fill="#fedb41"/><path d="m242.191406 118.191406h161.546875c-.816406 44.121094-36.816406 79.460938-80.941406 79.460938-44.128906.003906-80.132813-35.332032-80.957031-79.453125zm0 0" fill="#00efd1"/><path d="m380.039062 282.421875c31.621094 31.621094 31.621094 82.886719 0 114.507813-.359374.359374-.71875.710937-1.078124 1.058593l-114.230469-114.226562-.261719-.25c.339844-.371094.703125-.730469 1.0625-1.089844 31.621094-31.621094 82.886719-31.621094 114.507812 0zm0 0" fill="#fedb41"/><path d="m264.730469 283.761719 114.230469 114.226562c-31.777344 30.625-82.226563 30.160157-113.4375-1.042969-31.207032-31.207031-31.675782-81.65625-1.054688-113.433593zm0 0" fill="#00efd1"/><path d="m188.839844 228.191406v129.078125c0 49.214844-39.894532 89.109375-89.109375 89.109375-49.214844 0-89.109375-39.894531-89.109375-89.109375v-129.078125zm0 0" fill="#00efd1"/><path d="m188.839844 99.109375v129.082031h-178.21875v-129.082031c0-49.214844 39.894531-89.109375 89.109375-89.109375 49.214843 0 89.109375 39.894531 89.109375 89.109375zm0 0" fill="#00acea"/><g fill="#083863"><path d="m.191406 357.269531c0 54.648438 44.851563 99.109375 99.5 99.109375 54.648438 0 99.5-44.460937 99.5-99.109375v-258.160156c-.167968-54.851563-44.734375-99.2070312-99.589844-99.109375-54.648437 0-99.410156 44.460938-99.410156 99.109375zm99.5 79.109375c-43.621094 0-79.5-35.488281-79.5-79.109375v-119.078125h159v119.078125c0 43.621094-35.878906 79.109375-79.5 79.109375zm-.175781-416.378906c43.800781-.046875 79.40625 35.308594 79.675781 79.109375v119.082031h-159v-119.082031c0-43.621094 35.699219-79.109375 79.324219-79.109375zm0 0"/><path d="m136.191406 259.46875c-5.523437 0-10 4.480469-10 10v87.800781c0 5.523438 4.476563 10 10 10 5.523438 0 10-4.476562 10-10v-87.800781c0-5.519531-4.476562-10-10-10zm0 0"/><path d="m322.789062 248.707031c-24.136718-.066406-47.296874 9.523438-64.320312 26.636719-.429688.429688-.859375.863281-1.269531 1.300781-25.171875 26.1875-32.351563 64.839844-18.261719 98.316407 14.085938 33.480468 46.742188 55.371093 83.0625 55.683593h.808594c23.558594.050781 46.207031-9.09375 63.128906-25.484375.390625-.382812.785156-.765625 1.179688-1.160156 26.023437-26.015625 33.808593-65.148438 19.726562-99.140625-14.082031-33.996094-47.253906-56.160156-84.050781-56.160156zm-.617187 161.9375c-26.503906-.230469-50.667969-15.207031-62.667969-38.839843-12-23.632813-9.835937-51.980469 5.617188-73.515626l99.050781 99.050782c-12.21875 8.808594-26.941406 13.472656-42.003906 13.304687zm56.429687-27.15625-99.632812-99.628906c28.246094-22.179687 68.605469-19.757813 94 5.632813 25.390625 25.394531 27.8125 65.753906 5.632812 93.996093zm0 0"/><path d="m322.789062 25.730469c-50.21875.054687-90.914062 40.75-90.96875 90.96875 0 .59375 0 1.1875.023438 1.78125.972656 49.535156 41.40625 89.179687 90.949219 89.175781s89.972656-39.652344 90.941406-89.183594c.023437-.585937.027344-1.179687.027344-1.773437-.058594-50.21875-40.753907-90.914063-90.972657-90.96875zm0 20c35.882813.046875 66.101563 26.839843 70.441407 62.460937h-140.882813c4.34375-35.621094 34.558594-62.414062 70.441406-62.460937zm49.746094 121.582031c-18.902344 18.578125-46.585937 25.078125-71.78125 16.847656-25.199218-8.226562-43.710937-29.8125-48.003906-55.96875h140.078125c-2.410156 14.871094-9.519531 28.582032-20.292969 39.121094zm0 0"/></g></svg>